<svg xmlns="http://www.w3.org/2000/svg" viewBox="0 0 24 24" fill="white">
  <path d="M23.994 6.124a9.23 9.23 0 00-.24-2.19c-.317-1.31-1.062-2.31-2.18-3.043a5.022 5.022 0 00-1.43-.715 10.496 10.496 0 00-1.96-.33C16.195.023 10.163.002 10.163.002S4.132.023 2.142.246c-.67.07-1.34.17-1.957.33-.42.167-.83.405-1.207.71-1.118.733-1.863 1.734-2.18 3.043a9.23 9.23 0 00-.24 2.19C.007 6.954 0 7.61 0 8.085v1.83c0 .48.007 1.132.064 1.962a9.23 9.23 0 00.24 2.19c.317 1.31 1.062 2.31 2.18 3.043.378.306.787.544 1.207.71.617.16 1.29.26 1.957.33 1.99.222 8.022.244 8.022.244s6.03-.022 8.02-.245a10.496 10.496 0 001.96-.33 5.022 5.022 0 001.43-.715c1.118-.733 1.863-1.734 2.18-3.043a9.23 9.23 0 00.24-2.19c.057-.83.064-1.483.064-1.963V8.085c0-.475-.007-1.13-.064-1.96zm-14.7 8.113V4.932l6.964 4.652-6.965 4.653z"/>
</svg>