<svg xmlns="http://www.w3.org/2000/svg" viewBox="0 0 200 120">
  <!-- 背景 -->
  <rect width="100%" height="100%" fill="#2d3436" rx="10" ry="10" />
  
  <!-- 城市剪影 -->
  <g fill="#1e272e">
    <!-- 建筑物 -->
    <rect x="20" y="40" width="20" height="80" />
    <rect x="25" y="30" width="10" height="10" />
    
    <rect x="45" y="50" width="15" height="70" />
    
    <rect x="65" y="35" width="25" height="85" />
    <rect x="70" y="25" width="15" height="10" />
    
    <rect x="95" y="45" width="20" height="75" />
    
    <rect x="120" y="30" width="15" height="90" />
    
    <rect x="140" y="50" width="20" height="70" />
    <rect x="145" y="40" width="10" height="10" />
    
    <rect x="165" y="35" width="15" height="85" />
  </g>
  
  <!-- 窗户灯光 -->
  <g fill="rgba(255, 255, 0, 0.5)">
    <rect x="25" y="45" width="3" height="4" />
    <rect x="32" y="55" width="3" height="4" />
    <rect x="25" y="65" width="3" height="4" />
    <rect x="32" y="75" width="3" height="4" />
    <rect x="25" y="85" width="3" height="4" />
    <rect x="32" y="95" width="3" height="4" />
    
    <rect x="50" y="60" width="3" height="4" />
    <rect x="50" y="70" width="3" height="4" />
    <rect x="50" y="80" width="3" height="4" />
    <rect x="50" y="90" width="3" height="4" />
    
    <rect x="70" y="45" width="3" height="4" />
    <rect x="80" y="55" width="3" height="4" />
    <rect x="70" y="65" width="3" height="4" />
    <rect x="80" y="75" width="3" height="4" />
    <rect x="70" y="85" width="3" height="4" />
    <rect x="80" y="95" width="3" height="4" />
    
    <rect x="100" y="55" width="3" height="4" />
    <rect x="107" y="65" width="3" height="4" />
    <rect x="100" y="75" width="3" height="4" />
    <rect x="107" y="85" width="3" height="4" />
    <rect x="100" y="95" width="3" height="4" />
    
    <rect x="125" y="40" width="3" height="4" />
    <rect x="125" y="50" width="3" height="4" />
    <rect x="125" y="60" width="3" height="4" />
    <rect x="125" y="70" width="3" height="4" />
    <rect x="125" y="80" width="3" height="4" />
    <rect x="125" y="90" width="3" height="4" />
    
    <rect x="145" y="60" width="3" height="4" />
    <rect x="152" y="70" width="3" height="4" />
    <rect x="145" y="80" width="3" height="4" />
    <rect x="152" y="90" width="3" height="4" />
    
    <rect x="170" y="45" width="3" height="4" />
    <rect x="170" y="55" width="3" height="4" />
    <rect x="170" y="65" width="3" height="4" />
    <rect x="170" y="75" width="3" height="4" />
    <rect x="170" y="85" width="3" height="4" />
    <rect x="170" y="95" width="3" height="4" />
  </g>
  
  <!-- 雨线 -->
  <g stroke="rgba(200,220,240,0.4)" stroke-width="0.5">
    <line x1="30" y1="0" x2="25" y2="20" />
    <line x1="60" y1="0" x2="55" y2="20" />
    <line x1="90" y1="0" x2="85" y2="20" />
    <line x1="120" y1="0" x2="115" y2="20" />
    <line x1="150" y1="0" x2="145" y2="20" />
    <line x1="180" y1="0" x2="175" y2="20" />
  </g>
  

</svg>