<svg xmlns="http://www.w3.org/2000/svg" viewBox="0 0 100 100">
  <!-- 背景圆形 -->
  <circle cx="50" cy="50" r="48" fill="#3c6382" stroke="white" stroke-width="2" />
  
  <!-- 雨滴图标 -->
  <g fill="white">
    <!-- 大雨滴 -->
    <path d="M50 20 C50 20, 65 50, 65 65 C65 80, 35 80, 35 65 C35 50, 50 20, 50 20 Z" />
    
    <!-- 小雨滴1 -->
    <path d="M30 40 C30 40, 35 50, 35 55 C35 60, 25 60, 25 55 C25 50, 30 40, 30 40 Z" opacity="0.7" />
    
    <!-- 小雨滴2 -->
    <path d="M70 40 C70 40, 75 50, 75 55 C75 60, 65 60, 65 55 C65 50, 70 40, 70 40 Z" opacity="0.7" />
  </g>
</svg>