<svg xmlns="http://www.w3.org/2000/svg" width="1920" height="1080" viewBox="0 0 1920 1080">
  <!-- 背景渐变 -->
  <defs>
    <linearGradient id="skyGradient" x1="0%" y1="0%" x2="0%" y2="100%">
      <stop offset="0%" stop-color="#1a472a" />
      <stop offset="100%" stop-color="#2d6a4f" />
    </linearGradient>
    <radialGradient id="fogGradient" cx="50%" cy="50%" r="70%" fx="50%" fy="50%">
      <stop offset="0%" stop-color="rgba(255,255,255,0.1)" />
      <stop offset="100%" stop-color="rgba(255,255,255,0)" />
    </radialGradient>
  </defs>
  
  <!-- 天空背景 -->
  <rect width="100%" height="100%" fill="url(#skyGradient)" />
  
  <!-- 远处的森林剪影 -->
  <g opacity="0.8">
    <!-- 树木剪影 -->
    <path d="M0,400 L100,350 L150,380 L200,340 L250,370 L300,330 L350,380 L400,320 L450,370 L500,330 L550,390 L600,340 L650,380 L700,330 L750,370 L800,320 L850,380 L900,340 L950,390 L1000,330 L1050,370 L1100,320 L1150,380 L1200,330 L1250,370 L1300,340 L1350,390 L1400,330 L1450,380 L1500,320 L1550,370 L1600,340 L1650,390 L1700,330 L1750,380 L1800,320 L1850,370 L1900,340 L1950,390 L1920,1080 L0,1080 Z" fill="#0a2f1a" />
    
    <!-- 中景树木 -->
    <path d="M0,500 L50,460 L100,490 L150,450 L200,500 L250,440 L300,490 L350,450 L400,510 L450,440 L500,490 L550,450 L600,500 L650,440 L700,490 L750,450 L800,510 L850,440 L900,490 L950,450 L1000,500 L1050,440 L1100,490 L1150,450 L1200,510 L1250,440 L1300,490 L1350,450 L1400,500 L1450,440 L1500,490 L1550,450 L1600,510 L1650,440 L1700,490 L1750,450 L1800,500 L1850,440 L1900,490 L1950,450 L1920,1080 L0,1080 Z" fill="#0d3d21" />
    
    <!-- 近景树木 -->
    <path d="M0,600 L30,550 L60,580 L90,540 L120,590 L150,530 L180,580 L210,540 L240,590 L270,530 L300,580 L330,540 L360,590 L390,530 L420,580 L450,540 L480,590 L510,530 L540,580 L570,540 L600,590 L630,530 L660,580 L690,540 L720,590 L750,530 L780,580 L810,540 L840,590 L870,530 L900,580 L930,540 L960,590 L990,530 L1020,580 L1050,540 L1080,590 L1110,530 L1140,580 L1170,540 L1200,590 L1230,530 L1260,580 L1290,540 L1320,590 L1350,530 L1380,580 L1410,540 L1440,590 L1470,530 L1500,580 L1530,540 L1560,590 L1590,530 L1620,580 L1650,540 L1680,590 L1710,530 L1740,580 L1770,540 L1800,590 L1830,530 L1860,580 L1890,540 L1920,590 L1920,1080 L0,1080 Z" fill="#104b28" />
  </g>
  
  <!-- 萤火虫效果 -->
  <g>
    <circle cx="200" cy="500" r="2" fill="rgba(173, 255, 47, 0.7)" />
    <circle cx="350" cy="600" r="1.5" fill="rgba(173, 255, 47, 0.6)" />
    <circle cx="500" cy="550" r="2" fill="rgba(173, 255, 47, 0.7)" />
    <circle cx="700" cy="650" r="1.5" fill="rgba(173, 255, 47, 0.6)" />
    <circle cx="900" cy="500" r="2" fill="rgba(173, 255, 47, 0.7)" />
    <circle cx="1100" cy="600" r="1.5" fill="rgba(173, 255, 47, 0.6)" />
    <circle cx="1300" cy="550" r="2" fill="rgba(173, 255, 47, 0.7)" />
    <circle cx="1500" cy="650" r="1.5" fill="rgba(173, 255, 47, 0.6)" />
    <circle cx="1700" cy="500" r="2" fill="rgba(173, 255, 47, 0.7)" />
  </g>
  
  <!-- 雾气效果 -->
  <rect width="100%" height="100%" fill="url(#fogGradient)" />
  
  <!-- 月光效果 -->
  <circle cx="1600" cy="200" r="80" fill="rgba(255, 255, 255, 0.2)" />
  <circle cx="1600" cy="200" r="60" fill="rgba(255, 255, 255, 0.3)" />
</svg>