<svg xmlns="http://www.w3.org/2000/svg" viewBox="0 0 200 120">
  <!-- 背景 -->
  <rect width="100%" height="100%" fill="#2d6a4f" rx="10" ry="10" />
  
  <!-- 树木剪影 -->
  <g fill="#104b28">
    <!-- 大树 -->
    <path d="M50 90 L50 60 L40 60 L60 40 L50 40 L70 20 L90 40 L80 40 L100 60 L90 60 L90 90 Z" />
    <path d="M130 90 L130 65 L120 65 L140 45 L130 45 L150 25 L170 45 L160 45 L180 65 L170 65 L170 90 Z" />
    
    <!-- 小树 -->
    <path d="M30 90 L30 70 L25 70 L35 60 L30 60 L40 50 L50 60 L45 60 L55 70 L50 70 L50 90 Z" />
    <path d="M110 90 L110 70 L105 70 L115 60 L110 60 L120 50 L130 60 L125 60 L135 70 L130 70 L130 90 Z" />
  </g>
  
  <!-- 萤火虫 -->
  <g fill="rgba(173, 255, 47, 0.7)">
    <circle cx="60" cy="50" r="2" />
    <circle cx="140" cy="40" r="2" />
    <circle cx="100" cy="30" r="2" />
    <circle cx="30" cy="60" r="1.5" />
    <circle cx="170" cy="55" r="1.5" />
  </g>
  

</svg>