<svg xmlns="http://www.w3.org/2000/svg" viewBox="0 0 200 120">
  <!-- 背景 -->
  <rect width="100%" height="100%" fill="#1e5f74" rx="10" ry="10" />
  
  <!-- 月亮 -->
  <circle cx="150" cy="30" r="15" fill="rgba(255, 255, 255, 0.8)" />
  
  <!-- 星星 -->
  <g fill="white" opacity="0.8">
    <circle cx="30" cy="20" r="1" />
    <circle cx="50" cy="30" r="1.5" />
    <circle cx="80" cy="15" r="1" />
    <circle cx="110" cy="25" r="1.5" />
    <circle cx="170" cy="40" r="1" />
    <circle cx="20" cy="40" r="1.5" />
    <circle cx="60" cy="50" r="1" />
    <circle cx="130" cy="20" r="1.5" />
  </g>
  
  <!-- 海平面 -->
  <line x1="0" y1="60" x2="200" y2="60" stroke="rgba(255,255,255,0.3)" stroke-width="1" />
  
  <!-- 波浪 -->
  <path d="M0,65 C20,60 40,70 60,65 C80,60 100,70 120,65 C140,60 160,70 180,65 C200,60 220,70 240,65 L200,120 L0,120 Z" fill="rgba(255,255,255,0.1)" />
  <path d="M0,75 C30,70 60,80 90,75 C120,70 150,80 180,75 C210,70 240,80 270,75 L200,120 L0,120 Z" fill="rgba(255,255,255,0.05)" />
  
  <!-- 月光反射 -->
  <path d="M140,60 C145,65 150,60 155,65 C160,60 165,65 170,60 L155,120 L140,120 Z" fill="rgba(255,255,255,0.1)" />
  
  <!-- 标题 -->
  <text x="100" y="110" font-family="Arial" font-size="14" fill="white" text-anchor="middle">海洋</text>
</svg>