<svg xmlns="http://www.w3.org/2000/svg" viewBox="0 0 200 120">
  <!-- 背景 -->
  <rect width="100%" height="100%" fill="#3c6382" rx="10" ry="10" />
  
  <!-- 雨滴图案 -->
  <g fill="white" opacity="0.7">
    <path d="M50 20 C50 20, 60 40, 60 50 C60 60, 40 60, 40 50 C40 40, 50 20, 50 20 Z" />
    <path d="M90 30 C90 30, 100 50, 100 60 C100 70, 80 70, 80 60 C80 50, 90 30, 90 30 Z" />
    <path d="M130 20 C130 20, 140 40, 140 50 C140 60, 120 60, 120 50 C120 40, 130 20, 130 20 Z" />
    <path d="M70 50 C70 50, 75 60, 75 65 C75 70, 65 70, 65 65 C65 60, 70 50, 70 50 Z" />
    <path d="M110 60 C110 60, 115 70, 115 75 C115 80, 105 80, 105 75 C105 70, 110 60, 110 60 Z" />
  </g>
  
  <!-- 雨线 -->
  <g stroke="white" opacity="0.5" stroke-width="1">
    <line x1="30" y1="70" x2="20" y2="100" />
    <line x1="60" y1="70" x2="50" y2="100" />
    <line x1="90" y1="80" x2="80" y2="100" />
    <line x1="120" y1="70" x2="110" y2="100" />
    <line x1="150" y1="80" x2="140" y2="100" />
    <line x1="170" y1="70" x2="160" y2="100" />
  </g>
  

</svg>