<svg xmlns="http://www.w3.org/2000/svg" width="1920" height="1080" viewBox="0 0 1920 1080">
  <!-- 背景渐变 -->
  <defs>
    <linearGradient id="skyGradient" x1="0%" y1="0%" x2="0%" y2="100%">
      <stop offset="0%" stop-color="#1a3a5f" />
      <stop offset="100%" stop-color="#3c6382" />
    </linearGradient>
    <radialGradient id="fogGradient" cx="50%" cy="50%" r="70%" fx="50%" fy="50%">
      <stop offset="0%" stop-color="rgba(255,255,255,0.1)" />
      <stop offset="100%" stop-color="rgba(255,255,255,0)" />
    </radialGradient>
  </defs>
  
  <!-- 天空背景 -->
  <rect width="100%" height="100%" fill="url(#skyGradient)" />
  
  <!-- 远处的建筑物剪影 -->
  <g opacity="0.7">
    <!-- 建筑物1 -->
    <rect x="100" y="400" width="200" height="680" fill="#0a1a2a" />
    <rect x="150" y="350" width="100" height="50" fill="#0a1a2a" />
    
    <!-- 建筑物2 -->
    <rect x="350" y="500" width="150" height="580" fill="#0a1a2a" />
    
    <!-- 建筑物3 -->
    <rect x="550" y="450" width="180" height="630" fill="#0a1a2a" />
    <rect x="600" y="400" width="80" height="50" fill="#0a1a2a" />
    
    <!-- 建筑物4 -->
    <rect x="800" y="350" width="220" height="730" fill="#0a1a2a" />
    
    <!-- 建筑物5 -->
    <rect x="1100" y="420" width="190" height="660" fill="#0a1a2a" />
    
    <!-- 建筑物6 -->
    <rect x="1350" y="480" width="170" height="600" fill="#0a1a2a" />
    
    <!-- 建筑物7 -->
    <rect x="1600" y="400" width="220" height="680" fill="#0a1a2a" />
    <rect x="1650" y="350" width="120" height="50" fill="#0a1a2a" />
  </g>
  
  <!-- 雨 -->
  <g opacity="0.5">
    <!-- 生成多条雨线 -->
    <g>
      <line x1="100" y1="0" x2="50" y2="100" stroke="rgba(200,220,240,0.4)" stroke-width="1" />
      <line x1="200" y1="0" x2="150" y2="100" stroke="rgba(200,220,240,0.4)" stroke-width="1" />
      <line x1="300" y1="0" x2="250" y2="100" stroke="rgba(200,220,240,0.4)" stroke-width="1" />
      <line x1="400" y1="0" x2="350" y2="100" stroke="rgba(200,220,240,0.4)" stroke-width="1" />
      <line x1="500" y1="0" x2="450" y2="100" stroke="rgba(200,220,240,0.4)" stroke-width="1" />
      <line x1="600" y1="0" x2="550" y2="100" stroke="rgba(200,220,240,0.4)" stroke-width="1" />
      <line x1="700" y1="0" x2="650" y2="100" stroke="rgba(200,220,240,0.4)" stroke-width="1" />
      <line x1="800" y1="0" x2="750" y2="100" stroke="rgba(200,220,240,0.4)" stroke-width="1" />
      <line x1="900" y1="0" x2="850" y2="100" stroke="rgba(200,220,240,0.4)" stroke-width="1" />
      <line x1="1000" y1="0" x2="950" y2="100" stroke="rgba(200,220,240,0.4)" stroke-width="1" />
      <line x1="1100" y1="0" x2="1050" y2="100" stroke="rgba(200,220,240,0.4)" stroke-width="1" />
      <line x1="1200" y1="0" x2="1150" y2="100" stroke="rgba(200,220,240,0.4)" stroke-width="1" />
      <line x1="1300" y1="0" x2="1250" y2="100" stroke="rgba(200,220,240,0.4)" stroke-width="1" />
      <line x1="1400" y1="0" x2="1350" y2="100" stroke="rgba(200,220,240,0.4)" stroke-width="1" />
      <line x1="1500" y1="0" x2="1450" y2="100" stroke="rgba(200,220,240,0.4)" stroke-width="1" />
      <line x1="1600" y1="0" x2="1550" y2="100" stroke="rgba(200,220,240,0.4)" stroke-width="1" />
      <line x1="1700" y1="0" x2="1650" y2="100" stroke="rgba(200,220,240,0.4)" stroke-width="1" />
      <line x1="1800" y1="0" x2="1750" y2="100" stroke="rgba(200,220,240,0.4)" stroke-width="1" />
      <line x1="1900" y1="0" x2="1850" y2="100" stroke="rgba(200,220,240,0.4)" stroke-width="1" />
      
      <!-- 第二组雨线，错开位置 -->
      <line x1="150" y1="100" x2="100" y2="200" stroke="rgba(200,220,240,0.4)" stroke-width="1" />
      <line x1="250" y1="100" x2="200" y2="200" stroke="rgba(200,220,240,0.4)" stroke-width="1" />
      <line x1="350" y1="100" x2="300" y2="200" stroke="rgba(200,220,240,0.4)" stroke-width="1" />
      <line x1="450" y1="100" x2="400" y2="200" stroke="rgba(200,220,240,0.4)" stroke-width="1" />
      <line x1="550" y1="100" x2="500" y2="200" stroke="rgba(200,220,240,0.4)" stroke-width="1" />
      <line x1="650" y1="100" x2="600" y2="200" stroke="rgba(200,220,240,0.4)" stroke-width="1" />
      <line x1="750" y1="100" x2="700" y2="200" stroke="rgba(200,220,240,0.4)" stroke-width="1" />
      <line x1="850" y1="100" x2="800" y2="200" stroke="rgba(200,220,240,0.4)" stroke-width="1" />
      <line x1="950" y1="100" x2="900" y2="200" stroke="rgba(200,220,240,0.4)" stroke-width="1" />
      <line x1="1050" y1="100" x2="1000" y2="200" stroke="rgba(200,220,240,0.4)" stroke-width="1" />
      <line x1="1150" y1="100" x2="1100" y2="200" stroke="rgba(200,220,240,0.4)" stroke-width="1" />
      <line x1="1250" y1="100" x2="1200" y2="200" stroke="rgba(200,220,240,0.4)" stroke-width="1" />
      <line x1="1350" y1="100" x2="1300" y2="200" stroke="rgba(200,220,240,0.4)" stroke-width="1" />
      <line x1="1450" y1="100" x2="1400" y2="200" stroke="rgba(200,220,240,0.4)" stroke-width="1" />
      <line x1="1550" y1="100" x2="1500" y2="200" stroke="rgba(200,220,240,0.4)" stroke-width="1" />
      <line x1="1650" y1="100" x2="1600" y2="200" stroke="rgba(200,220,240,0.4)" stroke-width="1" />
      <line x1="1750" y1="100" x2="1700" y2="200" stroke="rgba(200,220,240,0.4)" stroke-width="1" />
      <line x1="1850" y1="100" x2="1800" y2="200" stroke="rgba(200,220,240,0.4)" stroke-width="1" />
      <line x1="1950" y1="100" x2="1900" y2="200" stroke="rgba(200,220,240,0.4)" stroke-width="1" />
    </g>
  </g>
  
  <!-- 雾气效果 -->
  <rect width="100%" height="100%" fill="url(#fogGradient)" />
  
  <!-- 窗户上的水滴效果 -->
  <g opacity="0.3">
    <!-- 随机水滴 -->
    <circle cx="300" cy="200" r="3" fill="rgba(255,255,255,0.7)" />
    <circle cx="500" cy="300" r="2" fill="rgba(255,255,255,0.7)" />
    <circle cx="700" cy="150" r="4" fill="rgba(255,255,255,0.7)" />
    <circle cx="900" cy="250" r="3" fill="rgba(255,255,255,0.7)" />
    <circle cx="1100" cy="350" r="2" fill="rgba(255,255,255,0.7)" />
    <circle cx="1300" cy="200" r="3" fill="rgba(255,255,255,0.7)" />
    <circle cx="1500" cy="300" r="4" fill="rgba(255,255,255,0.7)" />
    <circle cx="1700" cy="150" r="2" fill="rgba(255,255,255,0.7)" />
    
    <!-- 水滴轨迹 -->
    <path d="M400 100 Q405 150, 390 200 Q385 250, 400 300" stroke="rgba(255,255,255,0.5)" stroke-width="2" fill="none" />
    <path d="M800 50 Q810 120, 790 190 Q780 260, 800 330" stroke="rgba(255,255,255,0.5)" stroke-width="2" fill="none" />
    <path d="M1200 80 Q1210 160, 1190 240 Q1180 320, 1200 400" stroke="rgba(255,255,255,0.5)" stroke-width="2" fill="none" />
    <path d="M1600 120 Q1610 200, 1590 280 Q1580 360, 1600 440" stroke="rgba(255,255,255,0.5)" stroke-width="2" fill="none" />
  </g>
</svg>