<svg version="1.1" id="svg939" xml:space="preserve" width="300" height="300" viewBox="0 0 32 32" xmlns="http://www.w3.org/2000/svg" xmlns:svg="http://www.w3.org/2000/svg" xmlns:xlink="http://www.w3.org/1999/xlink" xmlns:svgjs="http://svgjs.dev/svgjs"><g width="100%" height="100%" transform="matrix(1,0,0,1,0,0)"><defs id="defs943"><clipPath clipPathUnits="userSpaceOnUse" id="clipPath953"><path d="M 0,24 H 24 V 0 H 0 Z" id="path951" fill="#ffffff" fill-opacity="1" data-original-color="#000000ff" stroke="none" stroke-opacity="1"/></clipPath></defs><g id="g945" transform="matrix(1.3333333,0,0,-1.3333333,0,32)"><g id="g947"><g id="g949" clip-path="url(#clipPath953)"><g id="g955" transform="translate(15.0303,12)"><path d="m 0,0 c 2.268,1.803 4.97,4.831 4.97,9 0,1.104 -0.896,2 -2,2 h -12 c -1.105,0 -2,-0.896 -2,-2 0,-4.183 2.72,-7.203 4.991,-9 -2.271,-1.797 -4.991,-4.817 -4.991,-9 v -2 h 16 v 2 c 0,4.169 -2.702,7.197 -4.97,9 z" style="stroke-linecap: butt; stroke-linejoin: miter; stroke-miterlimit: 10; stroke-dasharray: none;" id="path957" fill="none" fill-opacity="1" stroke="#ffffff" stroke-opacity="1" data-original-stroke-color="#000000ff" stroke-width="2" data-original-stroke-width="2"/></g></g></g></g></g></svg>