<svg width="200" height="200" xmlns="http://www.w3.org/2000/svg">
  <rect width="200" height="200" fill="#f0f0f0"/>
  <rect x="20" y="20" width="160" height="160" fill="#ffffff" stroke="#07c160" stroke-width="4"/>
  <text x="100" y="105" text-anchor="middle" font-family="Arial" font-size="14" fill="#07c160">微信扫码</text>
  <text x="100" y="125" text-anchor="middle" font-family="Arial" font-size="12" fill="#666">WeChat QR Code</text>
  <g transform="translate(50, 50)" fill="#07c160">
    <rect x="0" y="0" width="10" height="10"/>
    <rect x="0" y="20" width="10" height="10"/>
    <rect x="20" y="0" width="10" height="10"/>
    <rect x="20" y="20" width="10" height="10"/>
    <rect x="40" y="0" width="10" height="10"/>
    <rect x="40" y="20" width="10" height="10"/>
    <rect x="60" y="0" width="10" height="10"/>
    <rect x="60" y="20" width="10" height="10"/>
    <rect x="80" y="0" width="10" height="10"/>
    <rect x="80" y="20" width="10" height="10"/>
    <rect x="0" y="40" width="10" height="10"/>
    <rect x="20" y="40" width="10" height="10"/>
    <rect x="40" y="40" width="10" height="10"/>
    <rect x="60" y="40" width="10" height="10"/>
    <rect x="80" y="40" width="10" height="10"/>
  </g>
</svg>